<?xml version="1.0" encoding="utf-8"?>
<!-- Generator: Adobe Illustrator 24.1.1, SVG Export Plug-In . SVG Version: 6.00 Build 0)  -->
<svg version="1.1" id="Layer_1" xmlns="http://www.w3.org/2000/svg" xmlns:xlink="http://www.w3.org/1999/xlink" x="0px" y="0px"
	 viewBox="0 0 800 300" style="enable-background:new 0 0 800 300;" xml:space="preserve">
<path d="M410.6,220.12c1.13,11.42,9.07,15.34,18.94,15.34c7.13,0,19.11-1.53,18.62-11.59c-0.49-10.23-13.93-11.42-27.36-14.66
	c-13.6-3.07-26.88-8.18-26.88-26.08c0-19.26,19.75-25.22,34.97-25.22c17.16,0,32.87,7.33,34.97,27.1H444.6
	c-1.78-9.38-8.74-11.76-17-11.76c-5.34,0-15.22,1.36-15.22,9.03c0,9.55,13.6,11.08,27.2,14.15c13.44,3.24,27.04,8.35,27.04,25.74
	c0,20.96-20.08,28.63-37.4,28.63c-21.21,0-36.59-9.88-37.08-30.68H410.6z"/>
<path d="M482.33,160.3h17.49v12.27h0.49c5.67-8.69,12.31-14.66,25.74-14.66c10.2,0,19.75,4.6,23.48,14.66
	c6.31-9.03,13.93-14.66,26.23-14.66c17.65,0,28.01,8.35,28.01,29.66v60.85h-18.46v-51.47c0-14.15-0.81-23.69-15.22-23.69
	c-12.47,0-17.81,8.52-17.81,23.52v51.64h-18.46v-56.59c0-12.27-3.56-18.58-14.74-18.58c-9.55,0-18.3,8.35-18.3,22.84v52.33h-18.46
	V160.3z"/>
<path d="M625.31,160.3h18.46v88.12h-18.46V160.3z"/>
<path d="M665.96,126.72h18.46v121.7h-18.46V126.72z"/>
<path d="M720.52,209.39c0,13.81,7.13,26.08,22.51,26.08c10.85,0,17.16-4.94,20.4-14.66h17.49c-3.89,19.26-19.75,30-37.89,30
	c-26.39,0-40.97-19.09-40.97-46.36c0-25.05,15.54-46.53,40.48-46.53c26.39,0,42.58,25.05,39.51,51.47H720.52z M763.59,196.6
	c-0.81-12.27-8.42-23.35-21.05-23.35c-12.79,0-21.54,10.23-22.02,23.35H763.59z"/>
<path d="M43.35,18.84c0.58,1.44,0.61,3.26,0.8,4.78c0.34,2.7,0.63,5.4,0.9,8.11c0.6,6.04,1.11,12.1,1.59,18.16
	c1.03,13.2,1.86,26.42,2.84,39.62c2,26.9,4.86,53.97,4.86,80.94c0,6.58,0.45,16.06,2.92,23.72c2.53-11.29,6.64-26.99,14.37-35.84
	c1.48-1.69,3.16-3.32,5.17-4.37c1.9-0.98,4.26-1.3,6.37-1.17c5.42,0.33,8.27,5.29,10.17,9.8c2.41,5.74,12.93,36.77,15.76,42.71
	c2.5,5.23,5.05,9.93,9.48,13.71c4.1,3.5,12.28,8.82,20.22,7.48c-0.76,4.46,1.81,10.47,0.4,12.16c-2.22,2.67-21.6-2.86-32.52-14.33
	c-4.38-4.6-10.12-16.57-12.64-22.35c-2.64-6.06-9.26-24.15-10.08-26.91c-0.49-1.64-0.86-3.83-2.23-5.01
	c-2.17-1.88-4.31,1.19-5.44,2.81c-1.7,2.45-3.02,5.16-4.22,7.89c-2.61,5.96-4.51,12.24-6.33,18.47c-0.86,2.95-1.69,5.91-2.47,8.89
	c-0.33,1.26-0.64,2.53-0.97,3.79c-0.06,0.25-0.63,1.6-0.52,1.82c0.1,0.2-0.29,1.32-0.35,1.64c-0.16,0.83-0.3,1.66-0.43,2.5
	c-0.29,1.84-0.51,3.7-0.7,5.55c-0.44,4.31-0.74,8.64-0.88,12.98c-0.13,3.94-0.17,7.89-0.09,11.84c0.04,1.75,0.08,3.5,0.24,5.25
	c0.09,1.01,0.15,2.19,0.61,3.11c-2.76,0-5.39-1.16-7.98-1.95c-1.22-0.38-2.47-0.71-3.74-0.87c-0.41-0.05-1.18,0.09-1.18-0.34
	c0-0.63,0-1.27,0-1.9c0-5.56,0-11.11,0-16.67c0-12.92-1.48-25.85-1.48-38.77c0-27.34-9.88-136.85-13.32-164.45
	c-0.25-2.04-0.51-4.08-0.78-6.12c-0.1-0.77-0.5-1.96-0.34-2.71c0.08-0.39,0.61-0.71,0.9-0.92C35.53,19.52,39.29,18.25,43.35,18.84
	C43.61,19.47,40.3,18.4,43.35,18.84z"/>
<path d="M157.59,166.42c13.88-6.33,24.62-0.8,27.76,3.17c2.63,3.32,2.44,8.15,1.89,12.1c-0.87,6.24-3.23,11.98-6.07,17.56
	c-2.61,5.13-5.73,10.01-9.41,14.43c-3.85,4.63-8.25,8.84-12.76,12.82c-2.44,2.15-4.95,4.23-7.51,6.24
	c-1.27,0.99-2.55,1.97-3.84,2.93c-0.66,0.49-1.32,0.97-1.98,1.45c-0.48,0.34,0.39,5.36,3.11,8.98c2.72,3.62,6.83,4.27,9.18,4.45
	c14.79,1.16,35.81-11.4,64.41-43.12c1.06-1.17,4.28,3.04,0.62,7.57c-14.16,17.55-36.35,44.55-59.33,44.54
	c-1.49,0-23.87-1.43-30.69-19.41c-1.87-4.93-2.14-10.54-2.19-15.76c-0.04-5.27,0.42-10.4,1.5-15.56c0.84-3.99,1.94-7.93,3.17-11.82
	c0.7-2.2,1.35-4.47,2.35-6.56c1.01-2.12,2.1-4.21,3.26-6.26C145.14,177.06,150.26,170.45,157.59,166.42
	C158.23,166.21,153.12,168.46,157.59,166.42z M144.04,225.88c10.82-5.82,20.06-16.52,26.76-26.87c1.73-2.67,3.28-5.44,4.3-8.46
	c1.02-3.01,4.45-13.48,0.33-15.63c-2.46-1.28-5.48-1.42-8.07-0.41c-3.98,1.55-7.24,5.19-9.77,8.51c-2.85,3.73-5.13,7.9-7.09,12.16
	C146.44,203.99,144.04,216.09,144.04,225.88z"/>
<path d="M230.1,184.05c0,0.64,0.32,3.66,0.97,9.03c0.65,5.38,1.4,11.93,2.26,19.67c0.86,7.74,1.88,16.07,3.06,24.99
	c1.18,8.92,0.12,2.45,1.09,10.51c0.97,8.06,1.88,15.16,2.74,21.28c0.86,6.13,1.4,10.05,1.61,11.77c-1.29-0.22-2.37-0.43-3.22-0.65
	c-0.86-0.22-1.72-0.76-2.58-1.61c-0.86-0.86-1.88-2.1-3.06-3.71c-1.18-1.61-2.85-3.92-5-6.93c-2.8-19.78-2.86-22.06-4.47-36.79
	c-1.61-14.72-2.96-26.71-4.03-35.96c-3.87,5.16-6.66,8.6-8.38,10.32c-1.72,1.72-2.79,2.58-3.22,2.58c-0.65,0-0.75-0.97-0.32-2.9
	c0.22-1.07,0.43-2.15,0.65-3.22c0.22-1.07,0.43-2.04,0.65-2.9c0.22-0.86,0.54-1.61,0.97-2.26c1.51-2.15,2.85-4.3,4.03-6.45
	c1.18-2.15,2.1-4.08,2.74-5.8c0.86-2.15,1.5-4.19,1.93-6.13c-0.22-2.36-0.38-4.4-0.48-6.13c-0.11-1.72-0.16-3.49-0.16-5.32
	c0-1.82-0.06-3.71-0.16-5.64c-0.11-1.93-0.16-4.4-0.16-7.42c0-2.79,0-7.04,0-12.74c0-5.69,0-12.04,0-19.03
	c0-6.98,0.11-14.35,0.32-22.09c0.21-7.74,0.48-15.1,0.81-22.09c0.32-6.98,0.75-13.33,1.29-19.03c0.53-5.69,1.13-10.05,1.77-13.06
	c1.5-6.23,3.81-11.01,6.93-14.35c3.11-3.33,6.39-5.27,9.84-5.8c3.44-0.53,6.82,0.32,10.16,2.58c3.33,2.26,5.86,5.75,7.58,10.48
	c1.93,4.73,2.9,10.86,2.9,18.38c0,7.53-0.65,15.75-1.93,24.67c-1.29,8.92-3.06,18.22-5.32,27.89c-2.26,9.67-4.68,19.08-7.26,28.22
	c-2.58,9.14-5.16,17.69-7.74,25.64C234.3,172.01,232.04,178.68,230.1,184.05z M227.52,165.67c5.37-15.69,9.78-31.12,13.22-46.27
	c3.44-15.16,5.97-28.75,7.58-40.79c1.61-12.04,2.15-21.77,1.61-29.18c-0.54-7.42-2.1-11.23-4.68-11.45
	c-4.09-1.5-7.31-0.11-9.67,4.19c-2.37,4.3-4.25,10.32-5.64,18.06c-1.4,7.74-2.31,16.61-2.74,26.6c-0.43,10-0.59,19.94-0.48,29.83
	c0.11,9.89,0.27,19.24,0.48,28.05C227.41,153.52,227.52,160.51,227.52,165.67z"/>
<path d="M287.18,184.05c0,0.64,0.32,3.66,0.97,9.03c0.65,5.38,1.4,11.93,2.26,19.67c0.86,7.74,1.88,16.07,3.06,24.99
	c1.18,8.92,0.12,2.45,1.09,10.51c0.97,8.06,1.88,15.16,2.74,21.28c0.86,6.13,1.4,10.05,1.61,11.77c-1.29-0.22-2.37-0.43-3.22-0.65
	c-0.86-0.22-1.72-0.76-2.58-1.61c-0.86-0.86-1.88-2.1-3.06-3.71c-1.18-1.61-2.85-3.92-5-6.93c-2.8-19.78-2.86-22.06-4.47-36.79
	c-1.61-14.72-2.96-26.71-4.03-35.96c-3.87,5.16-6.66,8.6-8.38,10.32c-1.72,1.72-2.79,2.58-3.22,2.58c-0.65,0-0.75-0.97-0.32-2.9
	c0.22-1.07,0.43-2.15,0.65-3.22c0.22-1.07,0.43-2.04,0.65-2.9c0.22-0.86,0.54-1.61,0.97-2.26c1.51-2.15,2.85-4.3,4.03-6.45
	c1.18-2.15,2.1-4.08,2.74-5.8c0.86-2.15,1.5-4.19,1.93-6.13c-0.22-2.36-0.38-4.4-0.48-6.13c-0.11-1.72-0.16-3.49-0.16-5.32
	c0-1.82-0.06-3.71-0.16-5.64c-0.11-1.93-0.16-4.4-0.16-7.42c0-2.79,0-7.04,0-12.74c0-5.69,0-12.04,0-19.03
	c0-6.98,0.11-14.35,0.32-22.09c0.21-7.74,0.48-15.1,0.81-22.09c0.32-6.98,0.75-13.33,1.29-19.03c0.53-5.69,1.13-10.05,1.77-13.06
	c1.5-6.23,3.81-11.01,6.93-14.35c3.11-3.33,6.39-5.27,9.84-5.8c3.44-0.53,6.82,0.32,10.16,2.58c3.33,2.26,5.86,5.75,7.58,10.48
	c1.93,4.73,2.9,10.86,2.9,18.38c0,7.53-0.65,15.75-1.93,24.67c-1.29,8.92-3.06,18.22-5.32,27.89c-2.26,9.67-4.68,19.08-7.26,28.22
	c-2.58,9.14-5.16,17.69-7.74,25.64C291.37,172.01,289.11,178.68,287.18,184.05z M284.6,165.67c5.37-15.69,9.78-31.12,13.22-46.27
	c3.44-15.16,5.97-28.75,7.58-40.79c1.61-12.04,2.15-21.77,1.61-29.18c-0.54-7.42-2.1-11.23-4.68-11.45
	c-4.09-1.5-7.31-0.11-9.67,4.19c-2.37,4.3-4.25,10.32-5.64,18.06c-1.4,7.74-2.31,16.61-2.74,26.6c-0.43,10-0.59,19.94-0.48,29.83
	c0.11,9.89,0.27,19.24,0.48,28.05C284.49,153.52,284.6,160.51,284.6,165.67z"/>
<path d="M319.42,154.06c4.08,0.22,8.6,0.81,13.54,1.77c4.94,0.97,9.78,2.26,14.51,3.87c4.73,1.61,9.08,3.44,13.06,5.48
	c3.98,2.05,7.26,4.35,9.84,6.93c2.58,2.37,4.08,5.97,4.51,10.8c0.43,4.84,0.11,10.16-0.97,15.96c-1.08,5.8-2.74,11.77-5,17.9
	c-2.26,6.13-4.79,11.66-7.58,16.61c-2.8,4.95-5.8,9.03-9.03,12.25c-3.22,3.22-6.24,4.84-9.03,4.84c-4.73,0-8.71-1.13-11.93-3.39
	c-3.22-2.26-5.8-5-7.74-8.22c-1.93-3.22-3.39-6.61-4.35-10.16c-0.97-3.55-1.56-6.61-1.77-9.19c-0.65-11.39-0.75-21.5-0.32-30.31
	c0.43-8.81,1.18-16.12,2.26-21.93c-0.64-1.07-1.29-2.04-1.93-2.9c-0.65-0.86-1.29-1.66-1.93-2.42c-0.65-0.75-1.4-1.45-2.26-2.1
	c0.86-0.43,1.72-1.07,2.58-1.94C317.59,156.64,318.77,155.35,319.42,154.06z M331.03,230.81c0.65,0.86,1.5,1.77,2.58,2.74
	c1.07,0.97,2.42,1.72,4.03,2.26c1.61,0.54,3.28,0.59,5,0.16c1.72-0.43,3.55-1.61,5.48-3.55c5.16-5.37,9.03-10.91,11.61-16.61
	c2.58-5.69,4.24-11.07,5-16.12c0.75-5.05,0.65-9.51-0.32-13.38c-0.97-3.87-2.53-6.66-4.68-8.38c-1.72-1.07-3.17-1.99-4.35-2.74
	c-1.18-0.75-2.69-1.45-4.51-2.1c-1.83-0.64-4.14-1.34-6.93-2.1c-2.8-0.75-6.45-1.77-10.96-3.06c-2.15,6.88-3.66,13.76-4.52,20.64
	c-0.86,6.88-1.24,13.17-1.13,18.86c0.11,5.7,0.53,10.64,1.29,14.83C329.36,226.45,330.17,229.3,331.03,230.81z"/>
<path d="M646.2,137.47c0.02,6.63-4.95,11.66-11.62,11.73c-6.62,0.08-11.69-4.92-11.74-11.58c-0.05-6.81,4.74-11.77,11.44-11.86
	C641.15,125.68,646.18,130.62,646.2,137.47z"/>
</svg>
